<svg width="150" height="54" viewBox="0 0 150 54" fill="none" xmlns="http://www.w3.org/2000/svg">
<path d="M69.59 37V16H75.32V24.28H78.29C79.05 24.28 79.69 24.03 80.21 23.53C80.75 23.03 81.02 22.33 81.02 21.43V16H86.75V21.52C86.75 22.8 86.44 23.97 85.82 25.03C85.22 26.07 84.41 26.91 83.39 27.55L85.43 31.87C85.61 32.25 85.93 32.44 86.39 32.44H88.13V37H84.95C83.77 37 82.82 36.78 82.1 36.34C81.38 35.9 80.83 35.31 80.45 34.57L77.75 28.9H75.32V37H69.59Z" fill="#FCFCFD"/>
<path d="M89.7441 37V15.1H94.9341V37H89.7441Z" fill="#FCFCFD"/>
<path d="M106.347 37C104.607 37 103.067 36.69 101.727 36.07C100.387 35.45 99.3366 34.56 98.5766 33.4C97.8166 32.24 97.4366 30.87 97.4366 29.29C97.4366 27.55 97.8066 26.08 98.5466 24.88C99.2866 23.66 100.257 22.74 101.457 22.12C102.677 21.5 103.997 21.19 105.417 21.19C106.917 21.19 108.227 21.51 109.347 22.15C110.467 22.77 111.327 23.65 111.927 24.79C112.547 25.93 112.857 27.26 112.857 28.78C112.857 29.1 112.837 29.47 112.797 29.89C112.757 30.29 112.707 30.63 112.647 30.91H102.837C102.997 31.57 103.357 32.06 103.917 32.38C104.477 32.7 105.187 32.86 106.047 32.86H111.147V37H106.347ZM102.657 27.88H107.937C107.917 27.16 107.687 26.55 107.247 26.05C106.807 25.55 106.177 25.3 105.357 25.3C104.517 25.3 103.877 25.56 103.437 26.08C102.997 26.58 102.737 27.18 102.657 27.88Z" fill="#FCFCFD"/>
<path d="M123.181 37.36C121.621 37.36 120.201 37.02 118.921 36.34C117.661 35.64 116.651 34.68 115.891 33.46C115.131 32.24 114.751 30.84 114.751 29.26C114.751 27.7 115.131 26.31 115.891 25.09C116.651 23.87 117.671 22.92 118.951 22.24C120.231 21.54 121.651 21.19 123.211 21.19C124.771 21.19 126.181 21.54 127.441 22.24C128.721 22.92 129.731 23.87 130.471 25.09C131.231 26.31 131.611 27.7 131.611 29.26C131.611 30.84 131.231 32.24 130.471 33.46C129.731 34.68 128.721 35.64 127.441 36.34C126.181 37.02 124.761 37.36 123.181 37.36ZM123.181 32.74C124.141 32.74 124.911 32.41 125.491 31.75C126.091 31.09 126.391 30.26 126.391 29.26C126.391 28.26 126.091 27.43 125.491 26.77C124.911 26.11 124.141 25.78 123.181 25.78C122.221 25.78 121.441 26.11 120.841 26.77C120.261 27.43 119.971 28.26 119.971 29.26C119.971 30.26 120.261 31.09 120.841 31.75C121.441 32.41 122.221 32.74 123.181 32.74Z" fill="#FCFCFD"/>
<path d="M134.07 37V28.12C134.07 26.8 134.39 25.62 135.03 24.58C135.69 23.52 136.61 22.69 137.79 22.09C138.99 21.49 140.39 21.19 141.99 21.19C143.59 21.19 144.97 21.49 146.13 22.09C147.29 22.69 148.18 23.52 148.8 24.58C149.42 25.62 149.73 26.8 149.73 28.12V37H144.51V28.36C144.51 27.68 144.27 27.08 143.79 26.56C143.31 26.04 142.68 25.78 141.9 25.78C141.12 25.78 140.48 26.04 139.98 26.56C139.5 27.08 139.26 27.68 139.26 28.36V37H134.07Z" fill="#FCFCFD"/>
<rect width="54" height="54" rx="14" fill="url(#paint0_linear_0_699)"/>
<path d="M16 22C16 18.6863 18.6863 16 22 16H23.9939C24.5462 16 24.9939 16.4477 24.9939 17V32.9662C24.9939 36.2799 22.3076 38.9662 18.9939 38.9662H17C16.4477 38.9662 16 38.5185 16 37.9662V22ZM27.769 22.2528C27.769 19.7629 28.3931 18.0899 29.6413 17.2337C30.8227 16.4337 33.0461 16.0338 36.3116 16.0338H38V19.2278C38 21.7739 37.3592 23.5878 36.0775 24.6694C34.7736 25.7509 32.5279 26.2917 29.3404 26.2917H27.769V22.2528ZM27.769 28.0492H29.3404C32.4833 28.0492 34.729 28.6801 36.0775 29.942C37.3592 31.1474 38 33.0514 38 35.6539V39H36.3116C33.113 39 30.8896 38.5156 29.6413 37.5467C28.3931 36.5665 27.769 34.809 27.769 32.2741V28.0492Z" fill="white"/>
<path d="M27.769 22.2528C27.769 19.7629 28.3931 18.0899 29.6413 17.2337C30.8227 16.4337 33.0461 16.0338 36.3116 16.0338H38V19.2278C38 21.7739 37.3592 23.5878 36.0775 24.6694C34.7736 25.7509 32.5279 26.2917 29.3404 26.2917H27.769V22.2528Z" fill="#5ECFFF"/>
<defs>
<linearGradient id="paint0_linear_0_699" x1="27" y1="0" x2="45.6923" y2="64.9038" gradientUnits="userSpaceOnUse">
<stop stop-color="#2E90FA"/>
<stop offset="1" stop-color="#53B1FD"/>
</linearGradient>
</defs>
</svg>
