<svg width="64" height="64" viewBox="0 0 64 64" fill="none" xmlns="http://www.w3.org/2000/svg">
<rect width="64" height="64" fill="white"/>
<path d="M44 47H20V44C20 42.0109 20.7902 40.1032 22.1967 38.6967C23.6032 37.2902 25.5109 36.5 27.5 36.5H36.5C38.4891 36.5 40.3968 37.2902 41.8033 38.6967C43.2098 40.1032 44 42.0109 44 44V47ZM32 33.5C30.8181 33.5 29.6478 33.2672 28.5558 32.8149C27.4639 32.3626 26.4718 31.6997 25.636 30.864C24.8003 30.0282 24.1374 29.0361 23.6851 27.9442C23.2328 26.8522 23 25.6819 23 24.5C23 23.3181 23.2328 22.1478 23.6851 21.0558C24.1374 19.9639 24.8003 18.9718 25.636 18.136C26.4718 17.3003 27.4639 16.6374 28.5558 16.1851C29.6478 15.7328 30.8181 15.5 32 15.5C34.3869 15.5 36.6761 16.4482 38.364 18.136C40.0518 19.8239 41 22.1131 41 24.5C41 26.8869 40.0518 29.1761 38.364 30.864C36.6761 32.5518 34.3869 33.5 32 33.5Z" fill="#878787"/>
</svg>
